<svg xmlns="http://www.w3.org/2000/svg" version="1.0" preserveAspectRatio="xMidYMid meet" viewBox="93.01 292.28 751.39 353.38">

<g transform="translate(0.000000,938.000000) scale(0.100000,-0.100000)" fill="#000000" stroke="none">
<path d="M4307 6449 c-68 -16 -121 -51 -202 -133 -94 -95 -151 -197 -213 -376 -50 -145 -68 -225 -136 -586 l-55 -292 -46 -63 c-100 -135 -174 -266 -241 -424 -29 -68 -47 -100 -58 -99 -83 4 -78 2 -71 33 9 41 -10 103 -40 131 -31 29 -37 23 -59 -62 -10 -37 -36 -102 -57 -145 -21 -43 -39 -80 -39 -84 0 -3 29 -9 64 -12 105 -10 186 -56 200 -113 7 -28 41 -32 86 -9 71 37 90 112 45 179 l-25 36 24 63 c29 78 93 205 140 277 41 63 40 67 26 -105 -12 -165 6 -251 69 -318 110 -120 333 -89 499 68 75 71 122 143 160 243 35 92 38 244 6 312 -45 96 -117 139 -234 140 -62 0 -85 -5 -136 -29 -33 -16 -77 -43 -97 -60 l-36 -32 6 38 c11 82 18 90 188 252 282 269 395 404 475 573 54 114 74 195 74 304 0 82 -3 97 -32 156 -57 117 -160 166 -285 137z m123 -117 c12 -10 28 -41 35 -69 37 -141 -59 -389 -232 -603 -79 -96 -278 -309 -281 -300 -4 11 40 224 80 389 66 274 183 524 272 581 39 25 97 26 126 2z m-269 -1380 c39 -35 51 -92 39 -183 -13 -91 -42 -163 -99 -240 -129 -176 -271 -170 -271 10 0 85 19 261 32 293 24 64 156 148 230 148 27 0 46 -8 69 -28z"/>
<path d="M4729 5411 c-21 -22 -29 -39 -29 -66 0 -51 44 -95 95 -95 27 0 44 8 66 29 21 22 29 39 29 66 0 51 -44 95 -95 95 -27 0 -44 -8 -66 -29z"/>
<path d="M1327 5256 c-185 -76 -332 -292 -383 -563 -31 -166 -10 -286 63 -355 86 -82 257 -81 372 3 23 16 43 29 45 29 2 0 21 -18 43 -39 43 -44 102 -64 154 -55 55 10 152 62 206 110 28 24 53 44 56 44 2 0 7 -21 10 -46 8 -79 82 -131 148 -106 25 10 26 15 32 104 18 248 120 454 271 542 84 49 123 27 111 -62 -4 -26 -22 -115 -41 -199 -56 -249 -55 -317 3 -363 30 -23 95 -27 116 -6 8 8 16 44 20 83 13 164 85 411 143 495 56 81 156 111 210 64 24 -20 28 -32 32 -88 8 -130 -82 -375 -167 -451 -46 -41 -57 -44 -90 -21 -21 15 -24 15 -39 0 -25 -25 -5 -67 42 -90 33 -16 45 -17 88 -8 113 27 218 129 303 297 101 200 94 363 -20 464 -37 32 -118 61 -171 61 -50 0 -146 -34 -197 -69 l-46 -32 -36 40 c-20 22 -52 45 -72 52 -74 24 -185 -16 -296 -106 l-57 -46 0 31 c0 48 -25 97 -59 114 -31 17 -88 21 -107 8 -6 -4 -14 -48 -17 -97 -12 -195 -79 -369 -181 -471 -67 -66 -143 -109 -176 -99 -41 13 -39 25 35 375 29 135 31 189 9 236 -27 57 -96 81 -142 48 -17 -12 -22 -25 -22 -58 0 -99 -63 -362 -111 -462 -68 -143 -211 -200 -262 -103 -16 29 -18 50 -13 139 9 179 65 340 163 464 74 94 155 130 231 103 18 -7 24 -4 31 15 31 83 -104 126 -232 74z"/>
<path d="M5933 5160 c-65 -39 -80 -112 -37 -175 25 -38 25 -38 8 -84 -22 -59 -104 -220 -149 -291 -39 -63 -39 -62 -25 92 11 117 2 216 -27 272 -93 186 -356 175 -554 -23 -122 -122 -189 -289 -175 -439 14 -158 102 -241 256 -242 62 0 85 5 136 29 33 16 78 43 98 62 l39 33 -6 -29 c-4 -17 -9 -46 -13 -66 -5 -31 -30 -59 -162 -184 -426 -400 -566 -621 -566 -892 0 -82 4 -98 32 -156 70 -141 209 -182 361 -106 70 35 182 148 233 235 107 183 152 342 253 887 l44 237 46 60 c92 119 187 288 251 445 22 54 37 80 48 79 83 -4 77 -1 70 -38 -8 -44 9 -96 41 -126 31 -29 37 -23 59 62 10 37 36 102 57 144 21 42 39 79 39 84 0 4 -29 10 -65 13 -36 4 -85 15 -108 25 -44 20 -97 73 -97 98 0 21 -49 18 -87 -6z m-432 -190 c50 -27 60 -108 37 -315 l-12 -110 -50 -50 c-60 -60 -130 -95 -187 -95 -33 0 -47 6 -75 34 -33 33 -34 36 -34 113 0 87 15 155 50 223 75 149 197 239 271 200z m-91 -1067 c-76 -383 -151 -606 -255 -763 -52 -78 -95 -110 -149 -110 -46 0 -82 33 -92 85 -28 152 62 389 227 595 88 109 283 321 287 310 2 -5 -6 -58 -18 -117z"/>
<path d="M4690 5101 c-23 -6 -25 -12 -32 -95 -5 -51 -29 -169 -59 -283 -74 -284 -76 -376 -9 -423 28 -20 94 -27 116 -12 6 4 14 45 17 92 4 49 24 148 47 235 73 269 84 351 56 420 -22 52 -81 80 -136 66z"/>
<path d="M6600 5101 c-124 -38 -240 -163 -317 -341 -69 -161 -63 -302 18 -394 92 -106 254 -112 393 -17 l45 32 36 -40 c43 -47 91 -66 151 -57 57 7 149 54 218 111 l56 45 0 -30 c0 -48 25 -97 59 -114 31 -17 88 -21 107 -8 6 4 14 46 17 93 13 186 77 364 166 461 63 68 151 123 186 114 46 -12 45 -23 -26 -361 -33 -159 -34 -223 -4 -268 29 -45 92 -60 133 -31 17 12 22 25 22 58 0 56 34 227 66 336 47 156 93 226 173 262 126 57 177 -43 140 -272 -44 -277 -229 -514 -368 -471 -42 13 -51 8 -51 -29 0 -32 31 -67 68 -77 42 -10 126 3 182 29 155 71 279 238 346 463 23 75 27 110 28 215 1 138 -10 175 -71 232 -84 80 -250 78 -371 -3 -24 -16 -45 -29 -48 -29 -3 0 -21 18 -42 39 -46 48 -98 64 -159 50 -63 -13 -150 -60 -205 -108 -25 -23 -48 -41 -51 -41 -2 0 -7 21 -10 46 -8 77 -84 130 -149 105 -26 -10 -28 -14 -28 -70 0 -119 -50 -311 -106 -406 -54 -92 -179 -195 -238 -195 -34 0 -49 31 -41 83 3 23 21 110 40 192 57 251 57 329 -2 375 -26 20 -87 27 -111 12 -6 -5 -16 -42 -22 -84 -24 -191 -76 -381 -131 -476 -49 -87 -148 -135 -210 -102 -78 42 -58 233 47 447 35 70 100 143 127 143 7 0 23 -7 36 -17 23 -15 25 -15 37 2 8 10 14 24 14 30 0 24 -33 55 -68 65 -42 11 -47 11 -82 1z"/>
<path d="M4518 4100 c-27 -28 -30 -36 -25 -73 11 -84 99 -116 158 -58 21 22 29 39 29 66 0 27 -8 44 -29 66 -41 41 -91 40 -133 -1z"/>
</g>
</svg>